<?xml version="1.0" standalone="no"?>
<!DOCTYPE svg PUBLIC "-//W3C//DTD SVG 1.1//EN" "http://www.w3.org/Graphics/SVG/1.1/DTD/svg11.dtd" >
<svg xmlns="http://www.w3.org/2000/svg">
<metadata>
Created by FontForge 20120731 at Wed Aug 24 16:29:07 2016
 By admin
</metadata>
<defs>
<font id="iconfont" horiz-adv-x="1024" >
  <font-face 
    font-family="iconfont"
    font-weight="500"
    font-stretch="normal"
    units-per-em="1024"
    panose-1="2 0 6 3 0 0 0 0 0 0"
    ascent="896"
    descent="-128"
    x-height="792"
    bbox="23 -96 994 879.5"
    underline-thickness="50"
    underline-position="-100"
    unicode-range="U+0078-E62B"
  />
<missing-glyph horiz-adv-x="374" 
d="M34 0v682h272v-682h-272zM68 34h204v614h-204v-614z" />
    <glyph glyph-name=".notdef" horiz-adv-x="374" 
d="M34 0v682h272v-682h-272zM68 34h204v614h-204v-614z" />
    <glyph glyph-name=".null" horiz-adv-x="0" 
 />
    <glyph glyph-name="nonmarkingreturn" horiz-adv-x="341" 
 />
    <glyph glyph-name="x" unicode="x" horiz-adv-x="1001" 
d="M281 543q-27 -1 -53 -1h-83q-18 0 -36.5 -6t-32.5 -18.5t-23 -32t-9 -45.5v-76h912v41q0 16 -0.5 30t-0.5 18q0 13 -5 29t-17 29.5t-31.5 22.5t-49.5 9h-133v-97h-438v97zM955 310v-52q0 -23 0.5 -52t0.5 -58t-10.5 -47.5t-26 -30t-33 -16t-31.5 -4.5q-14 -1 -29.5 -0.5
t-29.5 0.5h-32l-45 128h-439l-44 -128h-29h-34q-20 0 -45 1q-25 0 -41 9.5t-25.5 23t-13.5 29.5t-4 30v167h911zM163 247q-12 0 -21 -8.5t-9 -21.5t9 -21.5t21 -8.5q13 0 22 8.5t9 21.5t-9 21.5t-22 8.5zM316 123q-8 -26 -14 -48q-5 -19 -10.5 -37t-7.5 -25t-3 -15t1 -14.5
t9.5 -10.5t21.5 -4h37h67h81h80h64h36q23 0 34 12t2 38q-5 13 -9.5 30.5t-9.5 34.5q-5 19 -11 39h-368zM336 498v228q0 11 2.5 23t10 21.5t20.5 15.5t34 6h188q31 0 51.5 -14.5t20.5 -52.5v-227h-327z" />
    <glyph glyph-name="uniE600" unicode="&#xe600;" 
d="M982 351q-17 -17 -59 28l-67 66v-496q0 -19 -12 -32t-30 -13h-111h-83h-416q-17 0 -29.5 13t-12.5 32v497l-67 -67q-43 -45 -60 -28q-12 13 -12 31.5t12 31.5l440 438q14 14 34 12q20 2 33 -12l175 -146v113q0 19 12.5 32t29.5 13t29 -13t12 -32v-150q0 -19 -12 -32
l194 -223q12 -13 12 -31.5t-12 -31.5zM509 791l-293 -292q2 -3 2 -70v-463h248v183q-1 1 -2.5 4t-2 10t2.5 12.5t14.5 10t30.5 4.5q20 0 31.5 -4.5t14.5 -10.5t2.5 -12t-2.5 -10l-2 -4v-183h247v463q0 68 2 70z" />
    <glyph glyph-name="uniE602" unicode="&#xe602;" 
d="M835 830h-655q-45 0 -77 -33.5t-32 -81.5v-665q0 -48 32 -82t77 -34h655q46 0 78 34t32 82v665q0 48 -32.5 81.5t-77.5 33.5zM890 50q0 -24 -16 -41t-39 -17h-655q-22 0 -38 17t-16 41v665q0 24 16 41t38 17h655q23 0 39 -17t16 -41v-665zM781 628h-464q-12 0 -20 -8.5
t-8 -20.5t8 -20.5t20 -8.5h464q11 0 19 8.5t8 20.5t-8 20.5t-19 8.5zM781 484h-464q-12 0 -20 -8.5t-8 -20.5t8 -20.5t20 -8.5h464q11 0 19 8.5t8 20.5t-8 20.5t-19 8.5zM781 339h-464q-12 0 -20 -8.5t-8 -20.5t8 -20.5t20 -8.5h464q11 0 19 8.5t8 20.5t-8 20.5t-19 8.5z
M781 194h-464q-12 0 -20 -8.5t-8 -20.5t8 -20t20 -8h464q11 0 19 8t8 20t-8 20.5t-19 8.5zM208 570h54v58h-54v-58zM208 426h54v58h-54v-58zM208 281h54v58h-54v-58zM208 137h54v57h-54v-57z" />
    <glyph glyph-name="uniE603" unicode="&#xe603;" 
d="M903 832h-2h-2h-98h-578h-98h-2h-2q-28 0 -48 -21t-20 -50.5t20 -51.5l150 -158v12q0 -121 79 -209t193 -95v-287h-136v-36h306v36h-136v287q114 7 193 95t79 209v-12l150 158q20 22 20 51.5t-20 50.5t-48 21zM223 602l-126 133q-10 10 -10 25t9.5 25.5t23.5 10.5h3h1h1
h98v-194zM767 563q0 -111 -75 -190t-180 -79t-180 79t-75 190v233h510v-233zM927 735l-126 -133v194h98h1h1h3q14 0 23.5 -10.5t9.5 -25.5t-10 -25z" />
    <glyph glyph-name="uniE604" unicode="&#xe604;" 
d="M750 -48q-31 0 -67 24l-160 109q-3 2 -11 2t-11 -2l-160 -109q-37 -24 -68.5 -23.5t-49.5 24.5q-24 32 -8 92l52 188q2 4 -0.5 11t-5.5 10l-152 121q-60 48 -44 97.5t92 52.5l193 8q4 0 10 4.5t8 8.5l66 183q27 73 78 73t78 -73l66 -183q2 -4 8 -8.5t10 -4.5l193 -8
q76 -3 92 -52.5t-44 -97.5l-152 -121q-3 -3 -5.5 -10t-0.5 -11l52 -188q16 -60 -8 -92q-19 -25 -51 -25v0zM512 167q31 0 54 -16l161 -109q5 -3 9 -5q-1 5 -3 10l-52 188q-7 28 2.5 58t31.5 48l151 121q5 3 8 7h-10l-193 8q-28 1 -53 20t-35 45l-67 184q-2 4 -4 10
q-2 -6 -4 -10l-67 -184q-10 -26 -35 -45t-53 -20l-193 -8h-10q3 -4 8 -7l151 -121q22 -18 31.5 -48t2.5 -58l-52 -188q-2 -6 -3 -10q5 2 9 5l161 109q23 16 54 16z" />
    <glyph glyph-name="uniE605" unicode="&#xe605;" 
d="M519 763l-457 -543l922 3z" />
    <glyph glyph-name="uniE606" unicode="&#xe606;" 
d="M965 591h-718l-58 242h-161v-35h134l167 -694q-27 -8 -44.5 -31t-17.5 -52q0 -35 25 -60.5t60.5 -25.5t60.5 25.5t25 60.5q0 29 -18 52h241q-18 -23 -18 -52q0 -35 25 -60.5t60.5 -25.5t60.5 25.5t25 61t-25 61t-60 25.5h-366l-17 69h480zM404 21.5q0 -21.5 -15 -36.5
t-36.5 -15t-36.5 15t-15 36.5t15 36.5t36.5 15t36.5 -15t15 -36.5zM780 21.5q0 -21.5 -15 -36.5t-36.5 -15t-36.5 15t-15 36.5t15 36.5t36.5 15t36.5 -15t15 -36.5zM338 211l-83 346h663l-116 -346h-464z" />
    <glyph glyph-name="uniE607" unicode="&#xe607;" 
d="M740 -56h-434q-29 0 -50.5 24.5t-21.5 58.5v717q0 34 21.5 58t50.5 24h434q30 0 51 -24t21 -58v-717q0 -34 -21 -58.5t-51 -24.5zM523 -28q10 0 17 8t7 19.5t-7 19.5t-17 8t-17 -8t-7 -19.5t7 -19.5t17 -8zM535 771h-24q-5 0 -8.5 -4t-3.5 -9.5t3.5 -9.5t8.5 -4h24
q5 0 8.5 4t3.5 9.5t-3.5 9.5t-8.5 4zM764 716h-482v-661h482v661z" />
    <glyph glyph-name="uniE608" unicode="&#xe608;" 
d="M879 23h-734q-35 0 -60 24.5t-25 58.5v556q0 34 25 58.5t60 24.5h734q35 0 60 -24.5t25 -58.5v-556q0 -34 -25 -58.5t-60 -24.5zM198 101h628q23 0 41 17.5t18 40.5v450l-351 -302q-22 -12 -44 0l-351 302v-450q0 -23 18 -40.5t41 -17.5zM826 667h-628l314 -279z" />
    <glyph glyph-name="uniE609" unicode="&#xe609;" 
d="M876 -71h-728q-18 0 -30.5 12.5t-12.5 29.5v56v8q7 137 79 244t188 151q-39 35 -55 70t-16 91q0 103 62 175.5t149 72.5t149 -72.5t62 -175.5q0 -56 -16 -91t-55 -70q116 -44 188 -151t79 -244v-8v-56q0 -17 -12.5 -29.5t-30.5 -12.5zM512 736q-54 0 -83 -38t-29 -107
q0 -67 28 -96.5t84 -29.5t84 29.5t28 96.5q0 69 -29 107t-83 38zM512 362q-131 0 -220 -101t-89 -249h618q0 148 -89 249t-220 101z" />
    <glyph glyph-name="uniE60A" unicode="&#xe60a;" 
d="M797 -69h-554q-31 0 -53.5 22.5t-22.5 54.5v449q0 31 22.5 53.5t53.5 22.5h63h12v-3h76v3h88h164v188q0 21 -15 36t-36 15h-151q-21 0 -35.5 -15t-14.5 -36v-188h-76v239q0 32 22.5 54.5t53.5 22.5h252q31 0 53 -22.5t22 -54.5v-239h76q31 0 53 -22.5t22 -53.5v-449
q0 -32 -22 -54.5t-53 -22.5zM797 406q0 21 -15 36t-36 15h-100h-252h-101q-21 0 -35.5 -15t-14.5 -36v-347q0 -21 14.5 -36t35.5 -15h453q21 0 36 15t15 36v347zM544 199q0 -1 0.5 -2t0.5 -2v-111q0 -10 -7.5 -17.5t-18 -7.5t-17.5 7.5t-7 17.5v111v2v2q-33 8 -54.5 35.5
t-21.5 63.5q0 42 29.5 72t71.5 30t71.5 -30t29.5 -72q0 -36 -21.5 -63.5t-55.5 -35.5zM520 349q-21 0 -35.5 -15t-14.5 -36.5t14.5 -36.5t35.5 -15t35.5 15t14.5 36.5t-14.5 36.5t-35.5 15z" />
    <glyph glyph-name="uniE60B" unicode="&#xe60b;" 
d="M789 -58h-554q-31 0 -53 21.5t-22 52.5v436q0 30 22 52t53 22h63h13h75h88h164v182q0 21 -15 35.5t-36 14.5h-151q-20 0 -35 -14.5t-15 -35.5v-51q0 -15 -11 -26t-26.5 -11t-26.5 11t-11 26v12v13v76q0 31 22 52.5t53 21.5h252q31 0 53 -21.5t22 -52.5v-232h76
q31 0 53 -22t22 -52v-436q0 -31 -22 -52.5t-53 -21.5zM789 402q0 21 -15 35.5t-35 14.5h-101h-252h-101q-20 0 -35 -14.5t-15 -35.5v-336q0 -21 15 -35.5t35 -14.5h454q20 0 35 14.5t15 35.5v336zM536 202q1 -1 1 -2v-2v-107q0 -11 -7.5 -18t-17.5 -7t-17.5 7t-7.5 18v107v2
q0 1 1 2q-34 8 -55.5 34.5t-21.5 60.5q0 42 29.5 71t71.5 29t71.5 -29t29.5 -71q0 -34 -21.5 -60.5t-55.5 -34.5zM512 347q-21 0 -35.5 -14.5t-14.5 -35t14.5 -35t35.5 -14.5t35.5 14.5t14.5 35t-14.5 35t-35.5 14.5z" />
    <glyph glyph-name="uniE60C" unicode="&#xe60c;" 
d="M539 794l-1 -2q-1 -3 -1 -4q-10 -35 7 -68l-275 -265q-17 8 -32 11q-53 9 -99 -17.5t-58 -72t17 -84.5t81 -48q47 -8 90 13l398 -167q-5 -10 -8 -19q-12 -46 17 -85t81.5 -48t98.5 17t58 72t-16.5 85t-81.5 48q-47 8 -90 -13l-398 166q6 11 8 20q9 35 -7 68l274 265
q17 -8 33 -11q52 -9 98 17t58.5 72t-16.5 85t-82 48q-55 10 -103 -20zM155 325l20 74l85 -15l-20 -74zM753 93l85 -14l-20 -74l-85 14zM612 737l19 74l85 -15l-19 -74z" />
    <glyph glyph-name="uniE60D" unicode="&#xe60d;" 
d="M873 548l4 -515h-737v515q-107 10 -106 84q0 24 10 45l96 96h733l96 -96q6 -40 -1.5 -68t-23 -39.5t-31.5 -17t-28 -5.5zM809 451l-24 -10q-69 -19 -92 71q-11 40 -11 100q-3 -7 -8 -19t-23 -41t-37.5 -50t-51 -35t-65 -7.5t-77.5 44t-89 108.5q1 -3 1 -9.5t-1.5 -24.5
t-5 -34t-12.5 -35.5t-22 -32.5t-35.5 -20.5t-51.5 -4.5v-353h605v353z" />
    <glyph glyph-name="uniE60E" unicode="&#xe60e;" 
d="M950 54v7q0 66 -83.5 131t-209.5 93q56 67 56 162v170q0 100 -60.5 166.5t-151.5 66.5t-151.5 -66.5t-60.5 -166.5v-170q0 -101 62 -168q-116 -31 -195.5 -91t-79.5 -128v-7q-5 -47 32 -67q60 -32 167.5 -50t238 -18t237.5 18t167 50q37 20 32 68zM346 447v170
q0 74 44 124t110.5 50t111 -50t44.5 -124v-170q0 -75 -44.5 -125t-111 -50t-110.5 50t-44 125zM892 38q-53 -28 -155 -44.5t-224 -16.5t-224 16.5t-155 44.5l-2 2q-1 1 0 7q1 8 1 13q0 43 81 98t197 75q43 -20 90 -20q51 0 95 24q123 -18 210 -74.5t87 -101.5q0 -5 1 -13
l1 -8z" />
    <glyph glyph-name="uniE60F" unicode="&#xe60f;" 
d="M900 831h-758q-36 0 -61.5 -26t-25.5 -62v-576q0 -35 24.5 -54.5t62.5 -19.5h350q35 0 79 -22t71 -49l51 -55q21 -22 35 -22q12 0 19.5 14.5t7.5 37.5q0 37 26 66.5t61 29.5h58q38 0 63 19.5t25 54.5v576q0 36 -26 62t-62 26zM930 167q0 -8 -5 -11.5t-9.5 -4t-15.5 -0.5
h-58q-47 0 -85 -31.5t-53 -77.5l-21 25q-35 35 -89.5 59.5t-101.5 24.5h-350q-10 0 -15 0.5t-9.5 4t-4.5 11.5v576q0 12 9 20.5t20 8.5h758q12 0 21 -8.5t9 -20.5v-576zM259 565h292q12 0 20.5 8.5t8.5 21t-8.5 21t-20.5 8.5h-292q-12 0 -20.5 -8.5t-8.5 -21t8.5 -21
t20.5 -8.5zM755 476h-496q-12 0 -20.5 -8.5t-8.5 -21t8.5 -21t20.5 -8.5h496q12 0 20.5 8.5t8.5 21t-8.5 21t-20.5 8.5zM755 358h-496q-12 0 -20.5 -9t-8.5 -21t8.5 -20.5t20.5 -8.5h496q12 0 20.5 8.5t8.5 20.5t-8.5 21t-20.5 9z" />
    <glyph glyph-name="uniE610" unicode="&#xe610;" 
d="M856.5 296q-44.5 0 -75.5 31t-31 75.5t31 75.5t75.5 31t75.5 -31t31 -75.5t-31 -75.5t-75.5 -31zM510 296q-44 0 -75 31t-31 75.5t31 75.5t75 31t75.5 -31t31.5 -75.5t-31.5 -75.5t-75.5 -31zM164 296q-44 0 -75.5 31t-31.5 75.5t31.5 75.5t75.5 31t75 -31t31 -75.5
t-31 -75.5t-75 -31z" />
    <glyph glyph-name="uniE611" unicode="&#xe611;" 
d="M356 829h-200q-42 0 -71.5 -29.5t-29.5 -70.5v-200q0 -42 29.5 -71t71.5 -29h200q41 0 70.5 29t29.5 71v200q0 41 -29.5 70.5t-70.5 29.5zM406 529q0 -21 -15 -35.5t-35 -14.5h-200q-21 0 -35.5 14.5t-14.5 35.5v200q0 21 14.5 35.5t35.5 14.5h200q20 0 35 -14.5
t15 -35.5v-200zM356 329h-200q-42 0 -71.5 -29.5t-29.5 -70.5v-201q0 -41 29.5 -70.5t71.5 -29.5h200q41 0 70.5 29.5t29.5 70.5v201q0 41 -29.5 70.5t-70.5 29.5zM406 28q0 -20 -15 -35t-35 -15h-200q-21 0 -35.5 15t-14.5 35v201q0 20 14.5 35t35.5 15h200q20 0 35 -15
t15 -35v-201zM856 329h-200q-41 0 -70.5 -29.5t-29.5 -70.5v-201q0 -41 29.5 -70.5t70.5 -29.5h100q11 0 18 7.5t7 18t-7 17.5t-18 7h-100q-21 0 -35.5 15t-14.5 35v201q0 20 14.5 35t35.5 15h200q21 0 35.5 -15t14.5 -35v-101q0 -10 7.5 -17.5t18 -7.5t17.5 7.5t7 17.5v101
q0 41 -29 70.5t-71 29.5zM856 829h-200q-41 0 -70.5 -29.5t-29.5 -70.5v-200q0 -42 29.5 -71t70.5 -29h200q42 0 71 29t29 71v200q0 41 -29 70.5t-71 29.5zM906 529q0 -21 -14.5 -35.5t-35.5 -14.5h-200q-21 0 -35.5 14.5t-14.5 35.5v200q0 21 14.5 35.5t35.5 14.5h200
q21 0 35.5 -14.5t14.5 -35.5v-200z" />
    <glyph glyph-name="uniE612" unicode="&#xe612;" 
d="M512 -55q-90 0 -171.5 35t-141 94t-94 141t-34.5 171.5t34.5 171.5t94 141t141 94t171.5 35t171.5 -35t140.5 -94t94 -141t35 -171.5t-35 -171.5t-94 -141t-140.5 -94t-171.5 -35zM758 541l-44 44q-6 6 -14.5 6t-14.5 -6l-263 -263l-126 126q-6 6 -14.5 6t-14.5 -6
l-44 -44q-6 -6 -6 -14.5t6 -14.5l140 -141v0l30 -30l7 -8l7 -6q6 -6 14.5 -6t14.5 6l322 322q6 6 6 14.5t-6 14.5z" />
    <glyph glyph-name="uniE613" unicode="&#xe613;" 
d="M726 179q-30 -35 -45 -58q-35 -53 -118 -159q-22 -27 -54 -27t-54 26l-5 7q-5 8 -13 19.5t-19.5 27t-24 32.5t-26 35.5t-26.5 35.5t-26 33t-23 28h3l-3 10q-54 60 -100 141.5t-46 142.5q0 98 48 181t131.5 131t183.5 48t185 -48t134.5 -131t49.5 -181q0 -40 -20 -90
t-51 -95.5t-49 -69t-32 -39.5zM509 777q-129 0 -220 -89t-91 -215q0 -49 43.5 -125t91.5 -133q56 -65 167 -220q3 -4 8 -4t9 5q83 105 115 155q17 26 50 64q56 64 97.5 137.5t41.5 120.5q0 126 -91.5 215t-220.5 89zM509 333q-71 0 -121 49t-50 118.5t50 118.5t121 49
t121.5 -49t50.5 -118.5t-50.5 -118.5t-121.5 -49zM509 612q-47 0 -80.5 -33t-33.5 -79t33.5 -78.5t80.5 -32.5t80.5 32.5t33.5 78.5t-33.5 79t-80.5 33z" />
    <glyph glyph-name="uniE614" unicode="&#xe614;" 
d="M948 639l-96 -78l-416 -432h-8h-2l-176 -61l-40 35l55 185v1v10l435 414l81 96q25 24 62 24t62 -24l43 -43q25 -26 25 -63.5t-25 -63.5zM287 144l77 30l-51 51zM341 279l75 -75l386 387l-73 72zM907 725l-43 43q-9 8 -21 8t-20 -8l-58 -58l84 -84l58 58q8 8 8 20t-8 21z
M509 664h-89h-176h-37q-29 0 -56.5 -25.5t-27.5 -54.5v-525q0 -28 27 -49.5t57 -21.5h528q28 0 48 21t20 50v66v264v29q0 12 8.5 20.5t20.5 8.5t20 -8.5t8 -20.5v-29v-264v-66q0 -58 -34 -93t-91 -35h-528q-59 0 -99.5 35.5t-40.5 92.5v525q0 58 41 97t99 39h37h176h89
q12 0 20.5 -8t8.5 -20t-8.5 -20t-20.5 -8z" />
    <glyph glyph-name="uniE615" unicode="&#xe615;" 
d="M335.5 100q11.5 0 20 8.5t8.5 20.5v314q0 12 -8.5 20.5t-20 8.5t-20 -8.5t-8.5 -20.5v-314q0 -12 8.5 -20.5t20 -8.5zM507 100q12 0 20.5 8.5t8.5 20.5v314q0 12 -8.5 20.5t-20.5 8.5t-20.5 -8.5t-8.5 -20.5v-314q0 -12 8.5 -20.5t20.5 -8.5zM678.5 100q11.5 0 20 8.5
t8.5 20.5v314q0 12 -8.5 20.5t-20 8.5t-20 -8.5t-8.5 -20.5v-314q0 -12 8.5 -20.5t20 -8.5zM821 757h-118q-10 38 -40.5 62t-69.5 24h-172q-39 0 -69.5 -24t-40.5 -62h-118q-48 0 -81.5 -33.5t-33.5 -80.5v-29h29v-28h57v-543q0 -47 33.5 -80.5t80.5 -33.5h458
q47 0 80.5 33.5t33.5 80.5v543h57v28h29v29q0 47 -33.5 80.5t-81.5 33.5zM421 786h172q32 0 49 -29h-270q17 29 49 29zM793 43q0 -24 -17 -40.5t-40 -16.5h-458q-24 0 -42.5 17t-18.5 40l4 543h572v-543zM810 643h-142h-321h-143h-68q0 24 16.5 40.5t40.5 16.5h628
q24 0 40.5 -16.5t16.5 -40.5h-68z" />
    <glyph glyph-name="uniE616" unicode="&#xe616;" 
d="M950 587l-79 -175v-1t-0.5 -1.5t-1 -1.5t-0.5 -2l-1 -2q-10 -21 -31 -29t-42 1q-13 6 -22 19l-146 68q-20 9 -27.5 30t1.5 41.5t29.5 28.5t40.5 -2l67 -31q-36 83 -111 131q-68 44 -147 47.5t-149.5 -34.5t-113.5 -108t-46 -151t33.5 -153.5t104.5 -116.5
q101 -65 216 -42t184 121q39 31 74.5 22.5t33.5 -51.5q-1 -2 -3 -6.5t-4 -6.5q-58 -95 -154 -146t-204 -47t-201 64.5t-142.5 158t-45.5 207.5t62.5 205t154.5 146t204 47t201 -65q95 -61 145 -164l20 45q9 21 30.5 29.5t42 -1.5t28.5 -31.5t-1 -42.5z" />
    <glyph glyph-name="uniE617" unicode="&#xe617;" 
d="M892 761q-23 0 -39 -16t-16 -39v-586q0 -23 16 -39t39 -16t39 16t16 39v586q0 23 -16 39t-39 16zM700.5 650q-22.5 0 -38.5 -16.5t-16 -39.5v-474q0 -23 16 -39t38.5 -16t38.5 16t16 39v474q0 23 -16 39.5t-38.5 16.5zM508.5 538q-22.5 0 -38.5 -16t-16 -39v-363
q0 -23 16 -39t38.5 -16t39 16t16.5 39v363q0 23 -16.5 39t-39 16zM317 427q-23 0 -39 -16.5t-16 -39.5v-251q0 -23 16 -39t39 -16t39 16t16 39v251q0 23 -16 39.5t-39 16.5zM125.5 315q-22.5 0 -38.5 -16t-16 -39v-140q0 -23 16 -39t38.5 -16t38.5 16t16 39v140q0 23 -16 39
t-38.5 16z" />
    <glyph glyph-name="uniE618" unicode="&#xe618;" 
d="M944 724l-328 -320q51 -80 37.5 -179t-87.5 -169q-87 -83 -205.5 -84t-200.5 80.5t-78.5 198t90.5 198.5q77 74 183 83t188 -50l220 215l-52 51q-11 11 -10.5 26.5t12 26.5t27 11t26.5 -11l51 -51l50 49q13 13 31 13t31 -13l15 -15q13 -12 13 -29.5t-13 -30.5zM234 387.5
q-59 -56.5 -61.5 -136.5t53.5 -135.5t137.5 -55t140.5 57t61.5 136.5t-53.5 135.5t-137.5 55t-140.5 -57z" />
    <glyph glyph-name="uniE619" unicode="&#xe619;" 
d="M903 832h-2h-2h-98h-578h-98h-2h-2q-28 0 -48 -21t-20 -50.5t20 -51.5l150 -158v12q0 -121 79 -209t193 -95v-287h-136v-36h306v36h-136v287q114 7 193 95t79 209v-12l150 158q20 22 20 51.5t-20 50.5t-48 21zM223 602l-126 133q-10 10 -10 25t9.5 25.5t23.5 10.5h3h1h1
h98v-194zM767 563q0 -111 -75 -190t-180 -79t-180 79t-75 190v233h510v-233zM927 735l-126 -133v194h98h1h1h3q14 0 23.5 -10.5t9.5 -25.5t-10 -25z" />
    <glyph glyph-name="uniE61A" unicode="&#xe61a;" 
d="M722 729q78 0 133.5 -55t55.5 -132q0 -40 -20 -69q-73 -109 -386 -411q-313 302 -386 411q-20 29 -20 69q0 77 55.5 132t133.5 55q52 0 96.5 -26.5t69.5 -72.5q16 -30 51 -30t51 30q25 46 69.5 72.5t96.5 26.5zM722 786q-69 0 -127 -35t-90 -94q-32 59 -90 94t-127 35
q-102 0 -174.5 -71.5t-72.5 -172.5q0 -58 29 -101q25 -36 80.5 -98.5t109.5 -118.5t118.5 -119.5t88.5 -86.5t38 -36q14 13 38 36t88.5 86.5t118.5 119.5t109.5 118.5t80.5 98.5q29 43 29 101q0 101 -72.5 172.5t-174.5 71.5z" />
    <glyph glyph-name="uniE61B" unicode="&#xe61b;" 
d="M813 419q-19 0 -44.5 17t-46.5 39q-55 59 -55 110q0 34 25 58.5t60 24.5q6 0 13 -3t14.5 -9t11.5 -10t12 -12.5t10 -10.5q2 2 10 10.5t12 12.5t11.5 10t14 9t13.5 3q35 0 59.5 -24.5t24.5 -58.5q0 -31 -26 -71t-60.5 -67.5t-58.5 -27.5zM783 76q1 -4 1 -8v-52
q0 -16 -11.5 -27t-27.5 -11h-641q-16 0 -27 11t-11 27v52v8q6 127 69.5 226t165.5 140q-34 33 -48 65t-14 84q0 95 54.5 162.5t131.5 67.5t131 -67.5t54 -162.5q0 -52 -14 -84t-48 -65q102 -41 165.5 -140t69.5 -226zM424.5 726q-47.5 0 -73 -35.5t-25.5 -99.5
q0 -62 24.5 -89.5t74 -27.5t74.5 27.5t25 89.5q0 64 -26 99.5t-73.5 35.5zM425 379q-102 0 -176.5 -74.5t-91.5 -190.5q-5 -29 -5 -60h545q0 138 -78.5 231.5t-193.5 93.5z" />
    <glyph glyph-name="uniE61C" unicode="&#xe61c;" 
d="M961 304q-3 -14 -17 -18q-75 -17 -113 -83.5t-16 -140.5q4 -14 -7 -23q-67 -59 -150 -88q-14 -5 -24 6q-52 56 -128.5 56t-128.5 -56q-7 -7 -16 -7q-4 0 -7 1q-84 29 -151 88q-11 9 -7 23q23 74 -15.5 140.5t-113.5 83.5q-14 4 -16 18q-9 44 -9 87t9 88q2 14 16 17
q75 17 113.5 83.5t15.5 140.5q-4 14 7 24q67 58 151 87q13 5 23 -6q52 -56 128.5 -56t128.5 56q10 11 24 6q83 -29 150 -87q11 -10 7 -24q-22 -73 16 -140t113 -84q14 -3 17 -17q8 -45 8 -88t-8 -87zM920 457q-84 25 -127.5 100.5t-23.5 161.5q-51 42 -113 65
q-63 -60 -150 -60t-151 60q-61 -23 -113 -65q20 -86 -23.5 -161.5t-126.5 -100.5q-6 -34 -6 -66t6 -65q83 -26 127 -101q43 -76 23 -162q52 -41 113 -65q64 60 151 60t150 -60q62 24 113 65q-20 86 23.5 161.5t127.5 101.5q5 33 5 65t-5 66zM632 345.5q-9 1.5 -14.5 9
t-3.5 16.5q2 12 2 20q0 46 -32.5 78.5t-78 32.5t-77.5 -32.5t-32 -78.5t32 -78.5t78 -32.5q8 0 19 2q9 2 16.5 -3t9.5 -14.5t-3.5 -17t-14.5 -8.5q-15 -3 -27 -3q-64 0 -109.5 45.5t-45.5 109.5t45.5 109.5t109 45.5t109 -45.5t45.5 -109.5q0 -12 -3 -28q-1 -9 -8.5 -14
t-16.5 -3.5z" />
    <glyph glyph-name="uniE61D" unicode="&#xe61d;" 
d="M503.5 -70q-91.5 0 -175 35.5t-144 96t-96 144t-35.5 175t35.5 175t96 144t144 96.5t175 36t175 -36t144 -96.5t96 -144t35.5 -175t-35.5 -175t-96 -144t-144 -96t-175 -35.5zM772 603l-74 63l-178 -211l-209 177l-62 -73l209 -177l-177 -210l75 -62l177 209l209 -177
l62 73l-210 178z" />
    <glyph glyph-name="uniE61E" unicode="&#xe61e;" 
d="M965 729q0 47 -33.5 80t-80.5 33h-678q-47 0 -80.5 -33t-33.5 -80v-57q0 -22 9 -42q-9 -21 -9 -43v-537q0 -47 33.5 -80t80.5 -33h678q47 0 80.5 33t33.5 80v537q0 22 -9 43q9 20 9 42v57zM116 729q0 23 16.5 39.5t40.5 16.5h678q24 0 40.5 -16.5t16.5 -39.5v-57
q0 -23 -16.5 -39.5t-40.5 -16.5h-678q-24 0 -40.5 16.5t-16.5 39.5v57zM851 -7h-678q-24 0 -40.5 17t-16.5 40v525q27 -16 57 -16h678q30 0 57 16v-525q0 -23 -16.5 -40t-40.5 -17zM823 474h-113q-12 0 -20 -8t-8 -20t8 -20t20 -8h26q-10 -84 -74 -141t-150 -57t-150 57
t-74 141h26q12 0 20 8t8 20t-8 20t-20 8h-113q-12 0 -20 -8t-8 -20t8 -20t20 -8h30q10 -108 91 -181.5t190 -73.5t190 73.5t91 181.5h30q12 0 20 8t8 20t-8 20t-20 8z" />
    <glyph glyph-name="uniE61F" unicode="&#xe61f;" 
d="M701 406q-7 7 -20.5 17.5t-54.5 29.5t-83 23l214 381l114 -167zM374 694l-96 168h468l-95 -168h-277zM318 401l-165 289l114 167l213 -379q-45 -6 -85.5 -25.5t-58.5 -35.5zM512 468q115 0 196 -82t81 -198.5t-81 -199t-196 -82.5t-196 82.5t-81 199t81 198.5t196 82z
M512 -53q97 0 165.5 69.5t68.5 168.5t-68.5 168.5t-165.5 69.5t-165.5 -69.5t-68.5 -168.5t68.5 -168.5t165.5 -69.5zM500 286h35v-224h-43v161q-23 -22 -54 -33v39q17 5 36 20.5t26 36.5z" />
    <glyph glyph-name="uniE620" unicode="&#xe620;" 
d="M853 -83q-7 3 -19 8t-50.5 18t-76.5 22.5t-91 17.5t-101 8q-76 0 -162 -19t-134 -36t-48 -19q-15 0 -26.5 11t-11.5 26v852q0 15 11.5 26t26.5 11h682q16 0 27 -11t11 -26v-852q0 -15 -11 -26t-27 -11zM853 806h-682v-852q7 3 20 8t52 18t77.5 22.5t92.5 17.5t102 8
q76 0 160.5 -19t131 -36t46.5 -19v852zM512 269l-151 -93l57 167l-133 130h171l56 148l57 -148h171l-133 -130l57 -167zM664 436h-114l-38 99l-38 -99h-113l94 -92l-38 -94l95 57l95 -56l-39 93z" />
    <glyph glyph-name="uniE621" unicode="&#xe621;" 
d="M486 383h-397q-10 0 -17.5 -7.5t-7.5 -17.5v-398q0 -10 7.5 -17t17.5 -7h397q11 0 18 7t7 17v398q0 10 -7 17.5t-18 7.5zM473 -2q0 -10 -7 -17.5t-17 -7.5h-322q-11 0 -18 7.5t-7 17.5v322q0 10 7 17.5t18 7.5h322q10 0 17 -7.5t7 -17.5v-322zM486 838h-397
q-10 0 -17.5 -7t-7.5 -17v-398q0 -10 7.5 -17.5t17.5 -7.5h397q11 0 18 7.5t7 17.5v398q0 10 -7 17t-18 7zM473 454q0 -10 -7 -17.5t-17 -7.5h-322q-11 0 -18 7.5t-7 17.5v322q0 10 7 17.5t18 7.5h322q10 0 17 -7.5t7 -17.5v-322zM933 261h-383q-11 0 -18 -7.5t-7 -17.5v-10
q0 -11 7 -18t18 -7h383q10 0 17.5 7t7.5 18v10q0 10 -7.5 17.5t-17.5 7.5zM933 131h-383q-11 0 -18 -7.5t-7 -17.5v-11q0 -10 7 -17.5t18 -7.5h383q10 0 17.5 7.5t7.5 17.5v11q0 10 -7.5 17.5t-17.5 7.5zM933 698h-383q-11 0 -18 -7t-7 -17v-11q0 -10 7 -17.5t18 -7.5h383
q10 0 17.5 7.5t7.5 17.5v11q0 10 -7.5 17t-17.5 7zM933 568h-383q-11 0 -18 -7t-7 -18v-10q0 -10 7 -17.5t18 -7.5h383q10 0 17.5 7.5t7.5 17.5v10q0 11 -7.5 18t-17.5 7z" />
    <glyph glyph-name="uniE622" unicode="&#xe622;" 
d="M345 464.5q0 10.5 -7.5 18.5t-18.5 8h-227q-11 0 -19 -8t-8 -18.5t8 -18.5t19 -8h227q11 0 18.5 8t7.5 18.5zM137 580h262q9 0 15.5 6.5t6.5 15.5t-6.5 15t-15.5 6h-262q-9 0 -15.5 -6t-6.5 -15t6.5 -15.5t15.5 -6.5zM754 152q-29 0 -49.5 -22.5t-20.5 -54t20.5 -53.5
t49.5 -22t49.5 22t20.5 53.5t-20.5 54t-49.5 22.5zM755 32q-17 0 -29 13t-12 31t12 31t29 13t29 -13t12 -31t-12 -31t-29 -13zM338 152q-29 0 -49.5 -22.5t-20.5 -54t20.5 -53.5t49.5 -22t50 22t21 53.5t-21 54t-50 22.5zM339 32q-17 0 -28.5 13t-11.5 31t11.5 31t28.5 13
t29 -13t12 -31t-12 -31t-29 -13zM928 477h-75q-30 27 -40 76q0 1 -0.5 4t-3 11t-7 14t-13 14.5t-20 12t-28.5 6.5t-39 -2v104q0 12 -8.5 21t-21.5 9h-485q-12 0 -21 -9t-9 -21v-60h245q24 0 40 -16.5t16 -39.5t-16 -39.5t-40 -16.5h-245v-24h170q23 0 39.5 -16.5t16.5 -39.5
t-16.5 -39t-39.5 -16h-170v-28v-283q0 -12 9 -21t21 -9h48v4q0 46 31 78.5t74 32.5t74 -32.5t31 -78.5v-4h205q-1 3 -1 4q0 46 31 78.5t74 32.5t74 -32.5t31 -78.5v-4h69q13 0 21.5 9t8.5 21v348q0 13 -8.5 21.5t-21.5 8.5zM702 477v117q26 3 43.5 -0.5t27.5 -12t15 -17.5
t6 -15l2 -7q2 -12 6.5 -23t9 -18.5t9 -13t6.5 -7.5l3 -3h-128z" />
    <glyph glyph-name="uniE623" unicode="&#xe623;" 
d="M529 60l2 260q24 3 51 15t47.5 28t37.5 32t26 26t9 11q185 42 235 225q23 85 13 159l-188 -4l-3 27h-504l-3 -27l-188 4q-1 -6 -1.5 -18t0.5 -46t7.5 -66.5t23 -74t42.5 -75t71.5 -62.5t104.5 -42q3 -5 9.5 -12t25.5 -25t38 -32.5t46 -27t52 -15.5l1 -260
q-9 0 -23.5 -2.5t-53.5 -11.5t-70 -21.5t-59 -36t-34 -51.5h526q-6 28 -33.5 51.5t-60.5 36t-68 21.5t-55.5 11.5t-23.5 2.5zM768 791l158 4v-17q0 -11 -3.5 -43.5t-10.5 -62.5t-23.5 -67.5t-38.5 -65.5t-59 -49.5t-83 -26.5q1 0 10 20t21.5 52.5t22.5 75t13 88.5t-7 92z
M88 795l158 -4q-10 -46 -7 -92t13 -88.5t22.5 -75t21.5 -52.5t10 -20q-46 5 -83 26t-59 50.5t-38 64.5t-23 68.5t-10.5 61.5t-4.5 44v17zM394 444l30 130l-108 92l135 -3l57 134l51 -132h124l-93 -91l36 -138l-119 98z" />
    <glyph glyph-name="uniE624" unicode="&#xe624;" 
d="M868 584h-197q24 10 44 24q55 37 76 90.5t-4.5 91.5t-82.5 38.5t-113 -36.5q-38 -26 -66 -64q-26 40 -67 67q-55 37 -112 36.5t-82.5 -38.5t-4.5 -91t76 -90q26 -17 54 -28h-234q-16 0 -27 -11t-11 -26v-244h3q5 1 9 1h345v232q0 10 8 23.5t17 18.5q4 2 7 3h3h5q3 0 6 -1
q3 -2 6 -3q9 -6 15.5 -18.5t6.5 -22.5v-232h357v243q0 15 -11 26t-26 11zM484 630q-17 -17 -55 -7t-72 36q-32 25 -44 55.5t2.5 49.5t47 14.5t64.5 -28.5q33 -26 52 -64t5 -56zM513 584h1v1v-1h-1zM566 626q-14 18 5 56t52 64q32 25 64.5 29t47 -15t2.5 -49.5t-44 -55.5
q-34 -26 -72.5 -36t-54.5 7zM548 -58v-4h320q15 0 26 11t11 27v251h-357v-285zM474 227h-345h-12v-251q0 -16 11 -27t27 -11h320q-1 2 -1 4v285z" />
    <glyph glyph-name="uniE625" unicode="&#xe625;" 
d="M82 606v-553q0 -10 6.5 -16.5t15.5 -6.5h127v599h-127q-9 0 -15.5 -6.5t-6.5 -16.5zM531 285v-104q45 9 45 48q0 32 -45 56zM463 400q0 -19 9 -31.5t33 -26.5v107q-42 -9 -42 -49zM950 629h-140v-599h140q9 0 16 6.5t7 16.5v553q0 10 -7 16.5t-16 6.5zM732 703
q0 31 -22 53t-53 22h-271q-31 0 -53 -22t-22 -53v-74h-37v-599h491v599h-33v74zM594.5 174q-23.5 -23 -63.5 -29v-52h-26v50q-50 0 -83 21v44q33 -27 83 -29v118q-53 25 -69 47t-16 51q0 35 24 60.5t61 30.5v23h26v-22q48 -2 66 -14v-43q-26 19 -66 21v-122
q50 -23 68.5 -45.5t18.5 -51.5q0 -35 -23.5 -58zM666 634q0 -3 -1 -5h-288v5v30q0 18 13 31.5t32 13.5h198q19 0 32.5 -13.5t13.5 -31.5v-30z" />
    <glyph glyph-name="uniE626" unicode="&#xe626;" 
d="M905 116h-45l-97 -132l-114 132h-512q-26 0 -44 19.5t-18 46.5v537q0 27 18 46t44 19h768q26 0 44 -19t18 -46v-537q0 -27 -18 -46.5t-44 -19.5zM184 306q0 -5 3.5 -9t8.5 -4h652q6 0 9.5 4t3.5 9v25q0 5 -3.5 9t-9.5 4h-652q-5 0 -8.5 -4t-3.5 -9v-25zM576 620
q0 6 -4 9.5t-9 3.5h-367q-5 0 -8.5 -3.5t-3.5 -9.5v-25q0 -5 3.5 -9t8.5 -4h367q5 0 9 4t4 9v25zM861 475q0 5 -3.5 9t-8.5 4h-653q-5 0 -8.5 -4t-3.5 -9v-25q0 -5 3.5 -9t8.5 -4h653q5 0 8.5 4t3.5 9v25z" />
    <glyph glyph-name="uniE62A" unicode="&#xe62a;" 
d="M941 694q0 45 -31.5 77t-76.5 32h-651q-44 0 -76 -32t-32 -77v-54q0 -21 8 -41q-8 -19 -8 -40v-515q0 -44 32 -76t76 -32h651q45 0 76.5 32t31.5 76v515q0 21 -8 40q8 20 8 41v54zM128 694q0 23 16 38.5t38 15.5h651q22 0 38 -15.5t16 -38.5v-54q0 -22 -16 -38t-38 -16
h-651q-22 0 -38 16t-16 38v54zM833 -10h-651q-22 0 -38 16t-16 38v503q26 -15 54 -15h651q28 0 54 15v-503q0 -22 -16 -38t-38 -16zM771 391h-91q-9 0 -16 -6.5t-7 -16t7 -16t16 -6.5h21q-8 -68 -59.5 -113.5t-120 -45.5t-120 45.5t-59.5 113.5h21q9 0 16 6.5t7 16t-7 16
t-16 6.5h-91q-9 0 -15.5 -6.5t-6.5 -16t6.5 -16t15.5 -6.5h24q9 -86 73.5 -145t152 -59t152 59t73.5 145h24q9 0 15.5 6.5t6.5 16t-6.5 16t-15.5 6.5z" />
    <glyph glyph-name="uniE62B" unicode="&#xe62b;" 
d="M746 -47q-29 0 -65 24l-158 107q-3 2 -11 2t-11 -2l-158 -107q-36 -24 -67 -23.5t-49 24.5q-24 32 -8 91l52 185q1 4 -1 11t-6 10l-149 119q-59 48 -43.5 96.5t90.5 51.5l190 8q5 0 10.5 4t7.5 9l65 180q26 72 77 72t77 -71l65 -181q2 -5 7.5 -9t10.5 -4l190 -8
q75 -3 90.5 -51.5t-43.5 -96.5l-149 -119q-4 -3 -6 -10t-1 -11l52 -185q16 -59 -8 -91q-18 -25 -51 -25v0z" />
  </font>
</defs>
</svg>
